<?xml version="1.0" encoding="utf-8"?>
<!-- Generator: Adobe Illustrator 23.0.6, SVG Export Plug-In . SVG Version: 6.00 Build 0)  -->
<svg version="1.0" id="Calque_1" xmlns="http://www.w3.org/2000/svg" xmlns:xlink="http://www.w3.org/1999/xlink" x="0px" y="0px"
	 viewBox="0 0 1000 1000" style="enable-background:new 0 0 1000 1000;" xml:space="preserve">
<style type="text/css">
	.st0{fill:#33DB77;stroke:#33DB77;stroke-width:6.1956;stroke-miterlimit:10;}
	.st1{opacity:0.8;fill:#33DB77;stroke:#33DB77;stroke-width:6.1956;stroke-miterlimit:10;}
	.st2{opacity:0.5;fill:#33DB77;stroke:#33DB77;stroke-width:6.1956;stroke-miterlimit:10;}
	.st3{opacity:0.3;fill:#33DB77;stroke:#33DB77;stroke-width:6.1956;stroke-miterlimit:10;}
	.st4{fill:#00326F;}
</style>
<g>
	<g>
		<g>
			<path class="st0" d="M692.1,544.5c-0.9-15.8-7.3-33.3-18.1-49c-10.8-15.8-24.7-28.1-39.1-34.6c-14.7-6.7-28.2-6.6-38,0.1
				c-9.8,6.7-14.7,19.3-13.8,35.4c0.9,15.8,7.3,33.3,18.1,49c10.8,15.8,24.7,28.1,39.1,34.6c7.3,3.3,14.3,5,20.8,5
				c6.5,0,12.3-1.7,17.3-5.1C688.1,573.2,693.1,560.6,692.1,544.5z M674,573.6c-16.6,11.4-46.4-3.2-66.5-32.5
				c-9.8-14.3-15.8-29.9-16.9-44c-1.1-13.8,2.7-24.4,10.6-29.8c3.7-2.6,8.2-3.8,13.2-3.8c5.6,0,11.8,1.6,18.4,4.7
				c12.7,6.1,25.1,17.4,34.9,31.6C687.8,529.1,690.6,562.2,674,573.6z"/>
			<path class="st1" d="M693.9,481.9c-10.8-15.8-24.7-28.1-39.1-34.6c-14.7-6.7-28.2-6.6-38,0.1c-20.1,13.8-18.2,51.6,4.3,84.4
				c16.9,24.7,40.7,39.6,60,39.6c6.3,0,12.2-1.6,17.2-5C718.3,552.5,716.3,514.7,693.9,481.9z M693.8,560
				c-16.6,11.4-46.4-3.2-66.5-32.5c-20.1-29.3-22.9-62.4-6.3-73.8c16.6-11.4,46.4,3.2,66.5,32.5C707.6,515.5,710.4,548.6,693.8,560z
				"/>
			<path class="st2" d="M713.8,468.3c-22.5-32.8-57.1-48.3-77.2-34.5c-9.8,6.7-14.7,19.3-13.8,35.4c0.9,15.8,7.3,33.3,18.1,49
				c16.9,24.7,40.7,39.6,60,39.6c6.3,0,12.2-1.6,17.2-5C738.1,538.9,736.2,501.1,713.8,468.3z M713.7,546.3
				c-7.9,5.4-19.1,5.1-31.6-0.9c-12.7-6.1-25.1-17.4-34.9-31.6c-9.8-14.3-15.8-29.9-16.9-44c-1.1-13.8,2.7-24.4,10.6-29.8
				c7.9-5.4,19.1-5.1,31.6,0.9c12.7,6.1,25.1,17.4,34.9,31.6c9.8,14.3,15.8,29.9,16.9,44C725.4,530.4,721.6,540.9,713.7,546.3z"/>
			<path class="st3" d="M751.8,503.7c-0.9-15.8-7.3-33.3-18.1-49c-10.8-15.8-24.7-28.1-39.1-34.6c-14.7-6.7-28.2-6.6-38,0.1
				c-20.1,13.8-18.2,51.6,4.3,84.4c10.8,15.8,24.7,28.1,39.1,34.6c7.3,3.3,14.3,5,20.8,5c6.5,0,12.3-1.7,17.3-5.1
				C747.8,532.4,752.7,519.8,751.8,503.7z M733.6,532.7c-7.9,5.4-19.1,5.1-31.6-0.9c-12.7-6.1-25.1-17.4-34.9-31.6
				c-9.8-14.3-15.8-29.9-16.9-44c-1.1-13.8,2.7-24.4,10.6-29.8c7.9-5.4,19.1-5.1,31.6,0.9c12.7,6.1,25.1,17.4,34.9,31.6
				c9.8,14.3,15.8,29.9,16.9,44C745.2,516.8,741.5,527.3,733.6,532.7z"/>
		</g>
		<path class="st4" d="M179.1,502.5c6.3-9,9.4-19,9.4-29.6c0-11.3-2.8-21.4-8.2-29.8c-5.4-8.2-12.3-14.7-20.7-19.1
			c-8.3-4.5-17.2-6.7-26.3-6.7H61.7v165.6h39.1v-56.2h21.5l31.6,56.1l46.7,0.4l-37.7-65C169.2,514.1,174.7,508.9,179.1,502.5z
			 M100.8,455.5h28.7c5.7,0,10.4,1.6,14.3,4.9c3.6,3,5.2,6.9,5.2,12.3c0,4.3-1.3,8.1-4,11.5c-2.3,2.9-5.2,4.2-9.6,4.2h-34.7V455.5z"
			/>
		<polygon class="st4" points="247,582.8 357.2,582.8 357.2,544.6 286.1,544.6 286.1,517.2 345.5,517.2 345.5,479 286.1,479 
			286.1,455.5 357.2,455.5 357.2,417.3 247,417.3 		"/>
		<polygon class="st4" points="516,417.3 454.1,479.2 454.1,417.3 415,417.3 415,582.8 454.1,582.8 454.1,529.3 468,515.8 
			518.1,582.8 567.1,582.8 495.8,488.7 569.5,417.3 		"/>
		<path class="st4" d="M899.2,417.3v57.1c0,10.5,0.2,21.9,0.6,33.9c0.1,2.1,0.2,4.1,0.3,6.2l-72.6-97.2h-32.7v165.6h39.1v-70.2
			c0-8.2-0.4-16.6-1-24.8l72.4,95h33.1V417.3H899.2z"/>
	</g>
</g>
</svg>
