<?xml version="1.0" encoding="utf-8"?>
<!-- Generator: Adobe Illustrator 23.0.6, SVG Export Plug-In . SVG Version: 6.00 Build 0)  -->
<svg version="1.0" id="Calque_1" xmlns="http://www.w3.org/2000/svg" xmlns:xlink="http://www.w3.org/1999/xlink" x="0px" y="0px"
	 viewBox="0 0 1000 1000" style="enable-background:new 0 0 1000 1000;" xml:space="preserve">
<style type="text/css">
	.st0{fill:#33DB77;stroke:#33DB77;stroke-width:14.3607;stroke-miterlimit:10;}
	.st1{opacity:0.8;fill:#33DB77;stroke:#33DB77;stroke-width:14.3607;stroke-miterlimit:10;}
	.st2{opacity:0.5;fill:#33DB77;stroke:#33DB77;stroke-width:14.3607;stroke-miterlimit:10;}
	.st3{opacity:0.3;fill:#33DB77;stroke:#33DB77;stroke-width:14.3607;stroke-miterlimit:10;}
</style>
<g>
	<g>
		<path class="st0" d="M557.4,603.1c-2.1-36.7-17-77.1-42-113.6c-25-36.5-57.2-65-90.7-80.3c-34-15.5-65.3-15.4-88.1,0.2
			c-22.8,15.6-34.2,44.8-32.1,82.1c2.1,36.7,17,77.1,42,113.6c25,36.5,57.2,65,90.7,80.3c17,7.7,33.2,11.6,48.1,11.6
			c15,0,28.6-3.9,40-11.7C548.1,669.6,559.5,640.4,557.4,603.1z M515.3,670.5c-38.5,26.3-107.6-7.5-154.1-75.4
			c-22.7-33.1-36.6-69.3-39.1-101.9c-2.5-32,6.2-56.5,24.5-69c8.7-5.9,19-8.9,30.6-8.9c12.9,0,27.3,3.7,42.6,11
			c29.5,14.2,58.2,40.2,80.9,73.3C547.2,567.5,553.7,644.2,515.3,670.5z"/>
		<path class="st1" d="M561.4,458c-25-36.5-57.2-65-90.7-80.3c-34-15.5-65.3-15.4-88.1,0.2c-46.6,31.9-42.1,119.7,9.9,195.7
			c39.2,57.2,94.3,91.7,139,91.7c14.7,0,28.3-3.7,39.8-11.6C617.9,621.8,613.5,534,561.4,458z M561.3,639
			c-38.5,26.3-107.6-7.5-154.1-75.4c-46.5-67.9-53-144.6-14.6-171c38.5-26.3,107.6,7.5,154.1,75.4
			C593.2,535.9,599.8,612.6,561.3,639z"/>
		<path class="st2" d="M607.5,426.4c-52-76-132.3-111.9-178.8-80.1c-22.8,15.6-34.2,44.8-32.1,82.1c2.1,36.7,17,77.1,42,113.6
			c39.2,57.2,94.3,91.7,139,91.7c14.7,0,28.3-3.7,39.8-11.6C664,590.2,659.5,502.5,607.5,426.4z M607.4,607.4
			c-18.3,12.5-44.3,11.8-73.2-2.1c-29.5-14.2-58.2-40.2-80.9-73.3c-22.7-33.1-36.6-69.3-39.1-101.9c-2.5-32,6.2-56.5,24.5-69
			c18.3-12.5,44.3-11.8,73.2,2.1c29.5,14.2,58.2,40.2,80.9,73.3c22.7,33.1,36.6,69.3,39.1,101.9
			C634.4,570.4,625.7,594.9,607.4,607.4z"/>
		<path class="st3" d="M695.5,508.5c-2.1-36.7-17-77.1-42-113.6s-57.2-65-90.7-80.3c-34-15.5-65.3-15.4-88.1,0.2
			c-46.6,31.9-42.1,119.7,9.9,195.7c25,36.5,57.2,65,90.7,80.3c17,7.7,33.2,11.6,48.1,11.6c15,0,28.6-3.9,40-11.7
			C686.3,575,697.6,545.8,695.5,508.5z M653.4,575.9c-18.3,12.5-44.3,11.8-73.2-2.1c-29.5-14.2-58.2-40.2-80.9-73.3
			c-22.7-33.1-36.6-69.3-39.1-101.9c-2.5-32,6.2-56.5,24.5-69c18.3-12.5,44.3-11.8,73.2,2.1c29.5,14.2,58.2,40.2,80.9,73.3
			s36.6,69.3,39.1,101.9C680.4,538.9,671.7,563.4,653.4,575.9z"/>
	</g>
</g>
</svg>
